PathFileType	4	(X/Y/Z)	./resultDataOpenSim/trcMotMarkerGrf/sub10/qtm-15-01.trc
DataRate	CameraRate	NumFrames	NumMarkers	Units	OrigDataRate	OrigDataStartFrame	OrigNumFrames
250.000000	250.000000	8	24	m	250.000000	170	452
Frame#	Time	L.Toe.Tip			R.Toe.Tip			L.Ankle.Lat			R.Ankle.Lat			L.Ankle.Med			R.Ankle.Med			L.Heel			R.Heel			L.Knee.Lat			R.Knee.Lat			L.Knee.Med			R.Knee.Med			L.Thigh.Upper			R.Thigh.Upper			L.ASIS			R.ASIS			V.Sacral			L.Acromium			R.Acromium			C7			L.Elbow			R.Elbow			L.Wrist.Lat			R.Wrist.Lat
		X1	Y1	Z1	X2	Y2	Z2	X3	Y3	Z3	X4	Y4	Z4	X5	Y5	Z5	X6	Y6	Z6	X7	Y7	Z7	X8	Y8	Z8	X9	Y9	Z9	X10	Y10	Z10	X11	Y11	Z11	X12	Y12	Z12	X13	Y13	Z13	X14	Y14	Z14	X15	Y15	Z15	X16	Y16	Z16	X17	Y17	Z17	X18	Y18	Z18	X19	Y19	Z19	X20	Y20	Z20	X21	Y21	Z21	X22	Y22	Z22	X23	Y23	Z23	X24	Y24	Z24

170	0.676	-0.02608196	0.00058861572	-0.11636055	-0.78924427	0.036108138	0.061478854	-0.1583505	0.0024138089	-0.147407	-0.85091774	0.16093737	0.10605101	-0.15448732	0.028999654	-0.064568168	-0.8050946	0.1530902	0.032649833	-0.21547428	-0.041374016	-0.10516513	-0.88709088	0.18081667	0.048323325	-0.19038404	0.39238883	-0.16984484	-0.55125062	0.42411895	0.13026861	-0.17811425	0.3753964	-0.051768928	-0.50635988	0.39657542	0.014718367	-0.29207417	0.77130592	-0.22075482	-0.41618678	0.80654253	0.15055398	-0.25154343	0.87798852	-0.13919271	-0.30654158	0.88529257	0.10101547	-0.4721482	0.8979125	-0.080024027	-0.3498145	1.3528828	-0.20691144	-0.36205032	1.3580433	0.11124396	-0.43750244	1.3779657	-0.053201721	-0.52958131	1.0650576	-0.25345354	-0.39729572	1.0153729	0.22842437	-0.4882506	0.83460841	-0.31784268	-0.15638305	0.93677559	0.23566481
171	0.68	-0.024928515	-0.0042620837	-0.11510839	-0.78717224	0.036197071	0.062008177	-0.15711059	-0.0012958697	-0.14689609	-0.84261208	0.16421216	0.1081834	-0.15325181	0.025495754	-0.064227237	-0.79664329	0.15468937	0.034969017	-0.21488077	-0.044503017	-0.10520001	-0.87717967	0.18614874	0.050519926	-0.18722397	0.38884271	-0.16994905	-0.53926851	0.4222044	0.13162041	-0.17409835	0.37287948	-0.051607178	-0.49329562	0.39308344	0.017021982	-0.28302075	0.77032111	-0.22081139	-0.40691075	0.80543163	0.15015258	-0.24309702	0.87721351	-0.13935496	-0.2974914	0.88468074	0.099809582	-0.46341733	0.89735763	-0.08139006	-0.3425284	1.3520177	-0.20830757	-0.35625759	1.3574667	0.10941941	-0.43015846	1.3765483	-0.054953699	-0.52126387	1.0640134	-0.25433015	-0.39175033	1.0150106	0.22597947	-0.48057637	0.83377882	-0.31973747	-0.15117109	0.93680967	0.23616621
172	0.684	-0.023744807	-0.0092504998	-0.11382957	-0.78451876	0.036955187	0.062693394	-0.15579417	-0.005158889	-0.14643174	-0.83401599	0.16766451	0.11036329	-0.15198207	0.021888155	-0.063934353	-0.7881312	0.15653408	0.037175616	-0.21410957	-0.047597025	-0.10507857	-0.86737936	0.19159345	0.053022252	-0.18423349	0.38514815	-0.17011902	-0.52701123	0.42001383	0.13305579	-0.16977122	0.37093789	-0.051360989	-0.4798741	0.38927423	0.019312074	-0.27399134	0.76915974	-0.22086755	-0.39768721	0.80421336	0.14978782	-0.2347372	0.87626984	-0.1395268	-0.28848662	0.8839504	0.098517601	-0.45376577	0.89665177	-0.081997254	-0.33510889	1.3510207	-0.20967863	-0.35045154	1.3567202	0.10753915	-0.4227019	1.3749702	-0.056572293	-0.51273965	1.0628535	-0.25529473	-0.38652316	1.0145467	0.22401917	-0.47279639	0.83285718	-0.32173694	-0.1460298	0.93676288	0.23681516
173	0.688	-0.022525853	-0.014430753	-0.1125591	-0.78117878	0.038431327	0.063607521	-0.15441316	-0.0091848331	-0.14602048	-0.8251817	0.17130603	0.11248949	-0.15069713	0.018148324	-0.063701815	-0.7795932	0.15880608	0.039133321	-0.21323852	-0.05064218	-0.10470932	-0.85767246	0.19712745	0.055674745	-0.1812996	0.38134927	-0.17033816	-0.51449178	0.4175602	0.13459411	-0.1651897	0.36943009	-0.051066991	-0.46610485	0.38518391	0.021578696	-0.26509667	0.76780207	-0.22095353	-0.38857166	0.80288308	0.14951612	-0.22648345	0.8751376	-0.139691	-0.27956229	0.8830812	0.097154588	-0.44392781	0.89583602	-0.082125808	-0.32752061	1.3498683	-0.21102178	-0.3446192	1.3557934	0.10561412	-0.41514848	1.3732212	-0.05816459	-0.5041112	1.0615831	-0.25620963	-0.38152141	1.0139552	0.22236057	-0.46488618	0.83184853	-0.3238068	-0.14093519	0.93662395	0.23762535
174	0.692	-0.02129971	-0.019864726	-0.1112886	-0.77715209	0.04048316	0.064764473	-0.15298809	-0.013365864	-0.14568028	-0.81611713	0.17514794	0.11447714	-0.14940467	0.01421457	-0.063538175	-0.77106196	0.16167105	0.040718349	-0.21241707	-0.053782001	-0.10411032	-0.84800652	0.20269692	0.05829005	-0.17835549	0.37745868	-0.17058384	-0.50171159	0.41484859	0.13623884	-0.16049633	0.36810096	-0.050759169	-0.45205398	0.38086276	0.023798144	-0.2563446	0.76623741	-0.22107516	-0.37960861	0.80143893	0.14938394	-0.21830161	0.87383043	-0.13981125	-0.27071688	0.88207161	0.095727893	-0.43441484	0.89494956	-0.082281981	-0.31976249	1.3485349	-0.2123371	-0.33877161	1.3546751	0.10365779	-0.40753074	1.3712908	-0.059898423	-0.49541026	1.0601912	-0.25703296	-0.37667573	1.0132021	0.22080609	-0.45683463	0.83075086	-0.32594197	-0.13587089	0.9363833	0.23860978
175	0.696	-0.020090757	-0.025611007	-0.10998084	-0.7724468	0.042929509	0.066139531	-0.15156518	-0.01765724	-0.14543528	-0.80678992	0.17924187	0.11625324	-0.14810849	0.01004063	-0.06341743	-0.76247734	0.16512021	0.041948475	-0.21168649	-0.057099359	-0.10343244	-0.83849234	0.20824515	0.060791413	-0.17540412	0.37345904	-0.17083281	-0.48865935	0.41189279	0.13798491	-0.15579211	0.36678226	-0.050454139	-0.43779735	0.37636974	0.025945231	-0.24769459	0.76446737	-0.22121148	-0.37080059	0.79987621	0.14939499	-0.21016442	0.87233922	-0.13987337	-0.26193109	0.88092414	0.094242624	-0.4253513	0.89399744	-0.082419673	-0.3118683	1.3470012	-0.21362332	-0.33292817	1.3533438	0.10167383	-0.39986328	1.3691632	-0.061830854	-0.48660009	1.058651	-0.25782786	-0.37195963	1.0122658	0.21927416	-0.44863443	0.82954966	-0.32817079	-0.13083049	0.93603836	0.2397796
176	0.7	-0.018831769	-0.031686862	-0.10860982	-0.76701834	0.045667067	0.06774426	-0.15020179	-0.021940605	-0.14526445	-0.79715899	0.18366873	0.11776019	-0.14679781	0.0056918943	-0.0632167	-0.75367624	0.16893528	0.04297868	-0.2109425	-0.060408214	-0.10291355	-0.82938816	0.21375931	0.063227012	-0.17252277	0.36930459	-0.17107738	-0.47533267	0.40872166	0.13981791	-0.15110881	0.36542547	-0.050154482	-0.42337081	0.37176585	0.028001849	-0.23912125	0.76248511	-0.22134085	-0.36201856	0.79817904	0.14944909	-0.2020954	0.87059717	-0.13991304	-0.25319843	0.87963089	0.09271002	-0.4168412	0.89301091	-0.082042738	-0.30385505	1.3452561	-0.21487647	-0.32708102	1.3517693	0.099662519	-0.39214201	1.3668242	-0.063887569	-0.47765557	1.0569433	-0.25866179	-0.36731694	1.011145	0.21775677	-0.44026077	0.82821708	-0.33052629	-0.12580919	0.93559201	0.24114511
177	0.704	-0.017312843	-0.037923579	-0.10719537	-0.76077827	0.048702676	0.069693693	-0.1489038	-0.026003587	-0.14502687	-0.78720717	0.18849885	0.11896997	-0.14541425	0.0014026106	-0.062690037	-0.74451977	0.1728789	0.043932989	-0.21010183	-0.063245481	-0.1026911	-0.82070144	0.21927358	0.065524052	-0.16980278	0.36494167	-0.17134475	-0.46175353	0.40537353	0.1417118	-0.14644233	0.3640405	-0.049857734	-0.40877977	0.36711174	0.029956757	-0.2306212	0.76026713	-0.22146016	-0.35300533	0.79633423	0.14934999	-0.19412951	0.86853565	-0.13996711	-0.24453045	0.87818082	0.091145402	-0.40911263	0.89203984	-0.081008858	-0.29570143	1.3432922	-0.21610157	-0.3212117	1.349933	0.097628304	-0.38437017	1.3642769	-0.065972448	-0.46858185	1.0550647	-0.25957806	-0.36263112	1.0098195	0.21622887	-0.43167451	0.82671688	-0.33303579	-0.12079401	0.93504972	0.24271735
